# MagicaVoxel @ Ephtracy

# material
mtllib BossArmorPiece2.mtl
usemtl palette

# normals
vn -1 0 0
vn 1 0 0
vn 0 0 1
vn 0 0 -1
vn 0 -1 0
vn 0 1 0

# texcoords
vt 0.958984 0.5
vt 0.974609 0.5
vt 0.994141 0.5

# verts
v -21 15 7
v -21 15 -6
v -21 20 21
v -21 20 20
v -21 26 20
v -21 26 7
v -21 26 -6
v -21 26 -21
v -21 41 21
v -21 41 -21
v 20 15 7
v 20 15 -7
v 20 26 20
v 20 26 7
v 20 26 -7
v 20 26 -21
v 20 29 -20
v 20 29 -21
v 20 40 20
v 20 40 -20
v -20 15 7
v -20 15 -6
v -20 26 20
v -20 26 7
v -20 26 -6
v -20 26 -21
v -20 29 -20
v -20 29 -21
v -20 40 20
v -20 40 -20
v 21 15 7
v 21 15 -7
v 21 20 21
v 21 20 20
v 21 26 20
v 21 26 7
v 21 26 -7
v 21 26 -21
v 21 41 21
v 21 41 -21
v -21 20 21
v -21 41 21
v -18 27 21
v -18 38 21
v 5 27 21
v 5 28 21
v 6 27 21
v 6 28 21
v 6 29 21
v 7 28 21
v 7 29 21
v 7 30 21
v 8 29 21
v 8 30 21
v 8 31 21
v 9 27 21
v 9 28 21
v 9 30 21
v 9 31 21
v 9 32 21
v 10 27 21
v 10 28 21
v 10 29 21
v 10 31 21
v 10 32 21
v 10 33 21
v 11 28 21
v 11 29 21
v 11 30 21
v 11 32 21
v 11 33 21
v 11 34 21
v 12 29 21
v 12 30 21
v 12 31 21
v 12 33 21
v 12 34 21
v 12 35 21
v 13 30 21
v 13 31 21
v 13 32 21
v 13 34 21
v 13 35 21
v 13 36 21
v 14 31 21
v 14 32 21
v 14 33 21
v 14 35 21
v 14 36 21
v 14 37 21
v 15 32 21
v 15 33 21
v 15 34 21
v 15 36 21
v 15 37 21
v 15 38 21
v 16 33 21
v 16 34 21
v 16 35 21
v 16 37 21
v 16 38 21
v 17 34 21
v 17 35 21
v 17 36 21
v 18 27 21
v 18 35 21
v 18 36 21
v 18 38 21
v 21 20 21
v 21 41 21
v -21 15 7
v -21 26 7
v -20 15 7
v -20 26 7
v 20 15 7
v 20 26 7
v 21 15 7
v 21 26 7
v -20 29 -20
v -20 40 -20
v 20 29 -20
v 20 40 -20
v -21 20 20
v -21 26 20
v -20 26 20
v -20 40 20
v -18 27 20
v -18 38 20
v 5 27 20
v 5 28 20
v 6 27 20
v 6 28 20
v 6 29 20
v 7 28 20
v 7 29 20
v 7 30 20
v 8 29 20
v 8 30 20
v 8 31 20
v 9 27 20
v 9 28 20
v 9 30 20
v 9 31 20
v 9 32 20
v 10 27 20
v 10 28 20
v 10 29 20
v 10 31 20
v 10 32 20
v 10 33 20
v 11 28 20
v 11 29 20
v 11 30 20
v 11 32 20
v 11 33 20
v 11 34 20
v 12 29 20
v 12 30 20
v 12 31 20
v 12 33 20
v 12 34 20
v 12 35 20
v 13 30 20
v 13 31 20
v 13 32 20
v 13 34 20
v 13 35 20
v 13 36 20
v 14 31 20
v 14 32 20
v 14 33 20
v 14 35 20
v 14 36 20
v 14 37 20
v 15 32 20
v 15 33 20
v 15 34 20
v 15 36 20
v 15 37 20
v 15 38 20
v 16 33 20
v 16 34 20
v 16 35 20
v 16 37 20
v 16 38 20
v 17 34 20
v 17 35 20
v 17 36 20
v 18 27 20
v 18 35 20
v 18 36 20
v 18 38 20
v 20 26 20
v 20 40 20
v 21 20 20
v 21 26 20
v -21 15 -6
v -21 26 -6
v -20 15 -6
v -20 26 -6
v 20 15 -7
v 20 26 -7
v 21 15 -7
v 21 26 -7
v -21 26 -21
v -21 41 -21
v -20 26 -21
v -20 29 -21
v 20 26 -21
v 20 29 -21
v 21 26 -21
v 21 41 -21
v -21 15 7
v -20 15 7
v 20 15 7
v 21 15 7
v -21 15 -6
v -20 15 -6
v 20 15 -7
v 21 15 -7
v -21 20 21
v 21 20 21
v -21 20 20
v 21 20 20
v -21 26 20
v -20 26 20
v 20 26 20
v 21 26 20
v -21 26 7
v -20 26 7
v 20 26 7
v 21 26 7
v -21 26 -6
v -20 26 -6
v 20 26 -7
v 21 26 -7
v -21 26 -21
v -20 26 -21
v 20 26 -21
v 21 26 -21
v -20 29 -20
v 20 29 -20
v -20 29 -21
v 20 29 -21
v -20 40 20
v 20 40 20
v -20 40 -20
v 20 40 -20
v -21 41 21
v 21 41 21
v -21 41 -21
v 21 41 -21

# faces
f 5/3/1 4/3/1 3/3/1
f 6/3/1 2/3/1 1/3/1
f 7/3/1 2/3/1 6/3/1
f 9/3/1 5/3/1 3/3/1
f 9/3/1 8/3/1 7/3/1
f 9/3/1 7/3/1 6/3/1
f 9/3/1 6/3/1 5/3/1
f 10/3/1 8/3/1 9/3/1
f 14/3/1 12/3/1 11/3/1
f 15/3/1 12/3/1 14/3/1
f 17/3/1 14/3/1 13/3/1
f 17/3/1 16/3/1 15/3/1
f 17/3/1 15/3/1 14/3/1
f 18/3/1 16/3/1 17/3/1
f 19/3/1 17/3/1 13/3/1
f 20/3/1 17/3/1 19/3/1
f 21/3/2 22/3/2 24/3/2
f 24/3/2 22/3/2 25/3/2
f 23/3/2 24/3/2 27/3/2
f 25/3/2 26/3/2 27/3/2
f 24/3/2 25/3/2 27/3/2
f 27/3/2 26/3/2 28/3/2
f 23/3/2 27/3/2 29/3/2
f 29/3/2 27/3/2 30/3/2
f 33/3/2 34/3/2 35/3/2
f 31/3/2 32/3/2 36/3/2
f 36/3/2 32/3/2 37/3/2
f 33/3/2 35/3/2 39/3/2
f 37/3/2 38/3/2 39/3/2
f 36/3/2 37/3/2 39/3/2
f 35/3/2 36/3/2 39/3/2
f 39/3/2 38/3/2 40/3/2
f 43/3/3 42/3/3 41/3/3
f 44/3/3 42/3/3 43/3/3
f 45/3/3 43/3/3 41/3/3
f 45/2/3 44/2/3 43/2/3
f 46/2/3 44/2/3 45/2/3
f 47/3/3 45/3/3 41/3/3
f 47/1/3 46/1/3 45/1/3
f 48/2/3 44/2/3 46/2/3
f 48/1/3 46/1/3 47/1/3
f 49/2/3 44/2/3 48/2/3
f 50/2/3 48/2/3 47/2/3
f 50/1/3 49/1/3 48/1/3
f 51/2/3 44/2/3 49/2/3
f 51/1/3 49/1/3 50/1/3
f 52/2/3 44/2/3 51/2/3
f 53/2/3 51/2/3 50/2/3
f 53/1/3 52/1/3 51/1/3
f 54/2/3 44/2/3 52/2/3
f 54/1/3 52/1/3 53/1/3
f 55/2/3 44/2/3 54/2/3
f 56/3/3 47/3/3 41/3/3
f 56/2/3 50/2/3 47/2/3
f 56/2/3 53/2/3 50/2/3
f 56/2/3 54/2/3 53/2/3
f 57/2/3 54/2/3 56/2/3
f 58/1/3 55/1/3 54/1/3
f 58/2/3 54/2/3 57/2/3
f 59/2/3 44/2/3 55/2/3
f 59/1/3 55/1/3 58/1/3
f 60/2/3 44/2/3 59/2/3
f 61/1/3 57/1/3 56/1/3
f 61/3/3 56/3/3 41/3/3
f 62/2/3 58/2/3 57/2/3
f 62/1/3 57/1/3 61/1/3
f 62/2/3 59/2/3 58/2/3
f 63/2/3 59/2/3 62/2/3
f 64/1/3 60/1/3 59/1/3
f 64/2/3 59/2/3 63/2/3
f 65/2/3 44/2/3 60/2/3
f 65/1/3 60/1/3 64/1/3
f 66/2/3 44/2/3 65/2/3
f 67/1/3 63/1/3 62/1/3
f 67/2/3 62/2/3 61/2/3
f 68/2/3 64/2/3 63/2/3
f 68/1/3 63/1/3 67/1/3
f 68/2/3 65/2/3 64/2/3
f 69/2/3 65/2/3 68/2/3
f 70/1/3 66/1/3 65/1/3
f 70/2/3 65/2/3 69/2/3
f 71/2/3 44/2/3 66/2/3
f 71/1/3 66/1/3 70/1/3
f 72/2/3 44/2/3 71/2/3
f 73/1/3 69/1/3 68/1/3
f 73/2/3 68/2/3 67/2/3
f 74/2/3 70/2/3 69/2/3
f 74/1/3 69/1/3 73/1/3
f 74/2/3 71/2/3 70/2/3
f 75/2/3 71/2/3 74/2/3
f 76/1/3 72/1/3 71/1/3
f 76/2/3 71/2/3 75/2/3
f 77/2/3 44/2/3 72/2/3
f 77/1/3 72/1/3 76/1/3
f 78/2/3 44/2/3 77/2/3
f 79/1/3 75/1/3 74/1/3
f 79/2/3 74/2/3 73/2/3
f 80/2/3 76/2/3 75/2/3
f 80/1/3 75/1/3 79/1/3
f 80/2/3 77/2/3 76/2/3
f 81/2/3 77/2/3 80/2/3
f 82/1/3 78/1/3 77/1/3
f 82/2/3 77/2/3 81/2/3
f 83/2/3 44/2/3 78/2/3
f 83/1/3 78/1/3 82/1/3
f 84/2/3 44/2/3 83/2/3
f 85/1/3 81/1/3 80/1/3
f 85/2/3 80/2/3 79/2/3
f 86/2/3 82/2/3 81/2/3
f 86/1/3 81/1/3 85/1/3
f 86/2/3 83/2/3 82/2/3
f 87/2/3 83/2/3 86/2/3
f 88/1/3 84/1/3 83/1/3
f 88/2/3 83/2/3 87/2/3
f 89/2/3 44/2/3 84/2/3
f 89/1/3 84/1/3 88/1/3
f 90/2/3 44/2/3 89/2/3
f 91/1/3 87/1/3 86/1/3
f 91/2/3 86/2/3 85/2/3
f 92/2/3 88/2/3 87/2/3
f 92/1/3 87/1/3 91/1/3
f 92/2/3 89/2/3 88/2/3
f 93/2/3 89/2/3 92/2/3
f 94/1/3 90/1/3 89/1/3
f 94/2/3 89/2/3 93/2/3
f 95/2/3 44/2/3 90/2/3
f 95/1/3 90/1/3 94/1/3
f 96/3/3 42/3/3 44/3/3
f 96/2/3 44/2/3 95/2/3
f 97/1/3 93/1/3 92/1/3
f 97/2/3 92/2/3 91/2/3
f 98/2/3 95/2/3 94/2/3
f 98/1/3 93/1/3 97/1/3
f 98/2/3 94/2/3 93/2/3
f 99/2/3 95/2/3 98/2/3
f 100/1/3 96/1/3 95/1/3
f 100/2/3 95/2/3 99/2/3
f 101/3/3 42/3/3 96/3/3
f 101/1/3 96/1/3 100/1/3
f 102/1/3 99/1/3 98/1/3
f 102/2/3 98/2/3 97/2/3
f 103/2/3 100/2/3 99/2/3
f 103/1/3 99/1/3 102/1/3
f 103/2/3 101/2/3 100/2/3
f 104/2/3 101/2/3 103/2/3
f 105/2/3 97/2/3 91/2/3
f 105/3/3 61/3/3 41/3/3
f 105/2/3 67/2/3 61/2/3
f 105/2/3 103/2/3 102/2/3
f 105/2/3 102/2/3 97/2/3
f 105/2/3 73/2/3 67/2/3
f 105/2/3 91/2/3 85/2/3
f 105/2/3 85/2/3 79/2/3
f 105/2/3 79/2/3 73/2/3
f 106/1/3 104/1/3 103/1/3
f 106/2/3 103/2/3 105/2/3
f 107/2/3 101/2/3 104/2/3
f 107/1/3 104/1/3 106/1/3
f 108/3/3 42/3/3 101/3/3
f 108/2/3 101/2/3 107/2/3
f 109/3/3 106/3/3 105/3/3
f 109/3/3 105/3/3 41/3/3
f 109/3/3 108/3/3 107/3/3
f 109/3/3 107/3/3 106/3/3
f 110/3/3 42/3/3 108/3/3
f 110/3/3 108/3/3 109/3/3
f 113/3/3 112/3/3 111/3/3
f 114/3/3 112/3/3 113/3/3
f 117/3/3 116/3/3 115/3/3
f 118/3/3 116/3/3 117/3/3
f 121/3/3 120/3/3 119/3/3
f 122/3/3 120/3/3 121/3/3
f 123/3/4 124/3/4 125/3/4
f 125/3/4 126/3/4 127/3/4
f 127/3/4 126/3/4 128/3/4
f 125/3/4 127/3/4 129/3/4
f 127/2/4 128/2/4 129/2/4
f 129/2/4 128/2/4 130/2/4
f 125/3/4 129/3/4 131/3/4
f 129/1/4 130/1/4 131/1/4
f 130/2/4 128/2/4 132/2/4
f 131/1/4 130/1/4 132/1/4
f 132/2/4 128/2/4 133/2/4
f 131/2/4 132/2/4 134/2/4
f 132/1/4 133/1/4 134/1/4
f 133/2/4 128/2/4 135/2/4
f 134/1/4 133/1/4 135/1/4
f 135/2/4 128/2/4 136/2/4
f 134/2/4 135/2/4 137/2/4
f 135/1/4 136/1/4 137/1/4
f 136/2/4 128/2/4 138/2/4
f 137/1/4 136/1/4 138/1/4
f 138/2/4 128/2/4 139/2/4
f 125/3/4 131/3/4 140/3/4
f 131/2/4 134/2/4 140/2/4
f 134/2/4 137/2/4 140/2/4
f 137/2/4 138/2/4 140/2/4
f 140/2/4 138/2/4 141/2/4
f 138/1/4 139/1/4 142/1/4
f 141/2/4 138/2/4 142/2/4
f 139/2/4 128/2/4 143/2/4
f 142/1/4 139/1/4 143/1/4
f 143/2/4 128/2/4 144/2/4
f 140/1/4 141/1/4 145/1/4
f 125/3/4 140/3/4 145/3/4
f 141/2/4 142/2/4 146/2/4
f 145/1/4 141/1/4 146/1/4
f 142/2/4 143/2/4 146/2/4
f 146/2/4 143/2/4 147/2/4
f 143/1/4 144/1/4 148/1/4
f 147/2/4 143/2/4 148/2/4
f 144/2/4 128/2/4 149/2/4
f 148/1/4 144/1/4 149/1/4
f 149/2/4 128/2/4 150/2/4
f 146/1/4 147/1/4 151/1/4
f 145/2/4 146/2/4 151/2/4
f 147/2/4 148/2/4 152/2/4
f 151/1/4 147/1/4 152/1/4
f 148/2/4 149/2/4 152/2/4
f 152/2/4 149/2/4 153/2/4
f 149/1/4 150/1/4 154/1/4
f 153/2/4 149/2/4 154/2/4
f 150/2/4 128/2/4 155/2/4
f 154/1/4 150/1/4 155/1/4
f 155/2/4 128/2/4 156/2/4
f 152/1/4 153/1/4 157/1/4
f 151/2/4 152/2/4 157/2/4
f 153/2/4 154/2/4 158/2/4
f 157/1/4 153/1/4 158/1/4
f 154/2/4 155/2/4 158/2/4
f 158/2/4 155/2/4 159/2/4
f 155/1/4 156/1/4 160/1/4
f 159/2/4 155/2/4 160/2/4
f 156/2/4 128/2/4 161/2/4
f 160/1/4 156/1/4 161/1/4
f 161/2/4 128/2/4 162/2/4
f 158/1/4 159/1/4 163/1/4
f 157/2/4 158/2/4 163/2/4
f 159/2/4 160/2/4 164/2/4
f 163/1/4 159/1/4 164/1/4
f 160/2/4 161/2/4 164/2/4
f 164/2/4 161/2/4 165/2/4
f 161/1/4 162/1/4 166/1/4
f 165/2/4 161/2/4 166/2/4
f 162/2/4 128/2/4 167/2/4
f 166/1/4 162/1/4 167/1/4
f 167/2/4 128/2/4 168/2/4
f 164/1/4 165/1/4 169/1/4
f 163/2/4 164/2/4 169/2/4
f 165/2/4 166/2/4 170/2/4
f 169/1/4 165/1/4 170/1/4
f 166/2/4 167/2/4 170/2/4
f 170/2/4 167/2/4 171/2/4
f 167/1/4 168/1/4 172/1/4
f 171/2/4 167/2/4 172/2/4
f 168/2/4 128/2/4 173/2/4
f 172/1/4 168/1/4 173/1/4
f 173/2/4 128/2/4 174/2/4
f 170/1/4 171/1/4 175/1/4
f 169/2/4 170/2/4 175/2/4
f 171/2/4 172/2/4 176/2/4
f 175/1/4 171/1/4 176/1/4
f 172/2/4 173/2/4 176/2/4
f 176/2/4 173/2/4 177/2/4
f 173/1/4 174/1/4 178/1/4
f 177/2/4 173/2/4 178/2/4
f 174/2/4 128/2/4 179/2/4
f 178/1/4 174/1/4 179/1/4
f 128/3/4 126/3/4 180/3/4
f 179/2/4 128/2/4 180/2/4
f 176/1/4 177/1/4 181/1/4
f 175/2/4 176/2/4 181/2/4
f 178/2/4 179/2/4 182/2/4
f 181/1/4 177/1/4 182/1/4
f 177/2/4 178/2/4 182/2/4
f 182/2/4 179/2/4 183/2/4
f 179/1/4 180/1/4 184/1/4
f 183/2/4 179/2/4 184/2/4
f 180/3/4 126/3/4 185/3/4
f 184/1/4 180/1/4 185/1/4
f 182/1/4 183/1/4 186/1/4
f 181/2/4 182/2/4 186/2/4
f 183/2/4 184/2/4 187/2/4
f 186/1/4 183/1/4 187/1/4
f 184/2/4 185/2/4 187/2/4
f 187/2/4 185/2/4 188/2/4
f 175/2/4 181/2/4 189/2/4
f 125/3/4 145/3/4 189/3/4
f 145/2/4 151/2/4 189/2/4
f 186/2/4 187/2/4 189/2/4
f 181/2/4 186/2/4 189/2/4
f 151/2/4 157/2/4 189/2/4
f 169/2/4 175/2/4 189/2/4
f 163/2/4 169/2/4 189/2/4
f 157/2/4 163/2/4 189/2/4
f 187/1/4 188/1/4 190/1/4
f 189/2/4 187/2/4 190/2/4
f 188/2/4 185/2/4 191/2/4
f 190/1/4 188/1/4 191/1/4
f 185/3/4 126/3/4 192/3/4
f 191/2/4 185/2/4 192/2/4
f 123/3/4 125/3/4 193/3/4
f 189/3/4 190/3/4 193/3/4
f 191/3/4 192/3/4 193/3/4
f 190/3/4 191/3/4 193/3/4
f 125/3/4 189/3/4 193/3/4
f 192/3/4 126/3/4 194/3/4
f 193/3/4 192/3/4 194/3/4
f 123/3/4 193/3/4 195/3/4
f 195/3/4 193/3/4 196/3/4
f 197/3/4 198/3/4 199/3/4
f 199/3/4 198/3/4 200/3/4
f 201/3/4 202/3/4 203/3/4
f 203/3/4 202/3/4 204/3/4
f 205/3/4 206/3/4 207/3/4
f 207/3/4 206/3/4 208/3/4
f 208/3/4 206/3/4 210/3/4
f 209/3/4 210/3/4 211/3/4
f 210/3/4 206/3/4 212/3/4
f 211/3/4 210/3/4 212/3/4
f 217/3/5 214/3/5 213/3/5
f 218/3/5 214/3/5 217/3/5
f 219/3/5 216/3/5 215/3/5
f 220/3/5 216/3/5 219/3/5
f 223/3/5 222/3/5 221/3/5
f 224/3/5 222/3/5 223/3/5
f 229/3/5 226/3/5 225/3/5
f 230/3/5 226/3/5 229/3/5
f 231/3/5 228/3/5 227/3/5
f 232/3/5 228/3/5 231/3/5
f 237/3/5 234/3/5 233/3/5
f 238/3/5 234/3/5 237/3/5
f 239/3/5 236/3/5 235/3/5
f 240/3/5 236/3/5 239/3/5
f 243/3/5 242/3/5 241/3/5
f 244/3/5 242/3/5 243/3/5
f 247/3/5 246/3/5 245/3/5
f 248/3/5 246/3/5 247/3/5
f 249/3/6 250/3/6 251/3/6
f 251/3/6 250/3/6 252/3/6
