# MagicaVoxel @ Ephtracy

# material
mtllib Ch_knife.mtl
usemtl palette

# normals
vn -1 0 0
vn 1 0 0
vn 0 0 1
vn 0 0 -1
vn 0 -1 0
vn 0 1 0

# texcoords
vt 0.822266 0.5
vt 0.841797 0.5
vt 0.958984 0.5
vt 0.970703 0.5
vt 0.994141 0.5

# verts
v -6 7 2
v -6 7 -1
v -6 8 2
v -6 8 -1
v -5 0 1
v -5 0 -0
v -5 7 1
v -5 7 -0
v -5 8 1
v -5 8 -0
v -5 24 1
v -5 24 -0
v -4 0 2
v -4 0 1
v -4 0 -0
v -4 0 -1
v -4 7 2
v -4 7 1
v -4 7 -0
v -4 7 -1
v -4 24 1
v -4 24 -0
v -4 26 1
v -4 26 -0
v -3 26 1
v -3 26 -0
v -3 27 1
v -3 27 -0
v -2 27 1
v -2 27 -0
v -2 28 1
v -2 28 -0
v -2 0 2
v -2 0 1
v -2 0 -0
v -2 0 -1
v -2 7 2
v -2 7 1
v -2 7 -0
v -2 7 -1
v -1 0 1
v -1 0 -0
v -1 7 1
v -1 7 -0
v -1 8 1
v -1 8 -0
v -1 26 1
v -1 26 -0
v -1 28 1
v -1 28 -0
v 0 7 2
v 0 7 -1
v 0 8 2
v 0 8 -1
v -6 7 2
v -6 8 2
v -4 0 2
v -4 7 2
v -2 0 2
v -2 7 2
v 0 7 2
v 0 8 2
v -5 0 1
v -5 7 1
v -5 8 1
v -5 24 1
v -4 0 1
v -4 7 1
v -4 8 1
v -4 22 1
v -4 24 1
v -4 26 1
v -3 22 1
v -3 25 1
v -3 26 1
v -3 27 1
v -2 0 1
v -2 7 1
v -2 25 1
v -2 26 1
v -2 27 1
v -2 28 1
v -1 0 1
v -1 7 1
v -1 8 1
v -1 26 1
v -1 28 1
v -5 0 -0
v -5 7 -0
v -5 8 -0
v -5 24 -0
v -4 0 -0
v -4 7 -0
v -4 8 -0
v -4 22 -0
v -4 24 -0
v -4 26 -0
v -3 22 -0
v -3 25 -0
v -3 26 -0
v -3 27 -0
v -2 0 -0
v -2 7 -0
v -2 25 -0
v -2 26 -0
v -2 27 -0
v -2 28 -0
v -1 0 -0
v -1 7 -0
v -1 8 -0
v -1 26 -0
v -1 28 -0
v -6 7 -1
v -6 8 -1
v -4 0 -1
v -4 7 -1
v -2 0 -1
v -2 7 -1
v 0 7 -1
v 0 8 -1
v -4 0 2
v -2 0 2
v -5 0 1
v -4 0 1
v -2 0 1
v -1 0 1
v -5 0 -0
v -4 0 -0
v -2 0 -0
v -1 0 -0
v -4 0 -1
v -2 0 -1
v -6 7 2
v -4 7 2
v -2 7 2
v 0 7 2
v -5 7 1
v -4 7 1
v -2 7 1
v -1 7 1
v -5 7 -0
v -4 7 -0
v -2 7 -0
v -1 7 -0
v -6 7 -1
v -4 7 -1
v -2 7 -1
v 0 7 -1
v -6 8 2
v 0 8 2
v -5 8 1
v -4 8 1
v -1 8 1
v -5 8 -0
v -4 8 -0
v -1 8 -0
v -6 8 -1
v 0 8 -1
v -5 24 1
v -4 24 1
v -5 24 -0
v -4 24 -0
v -4 26 1
v -3 26 1
v -4 26 -0
v -3 26 -0
v -3 27 1
v -2 27 1
v -3 27 -0
v -2 27 -0
v -2 28 1
v -1 28 1
v -2 28 -0
v -1 28 -0

# faces
f 3/5/1 2/5/1 1/5/1
f 4/5/1 2/5/1 3/5/1
f 7/3/1 6/3/1 5/3/1
f 8/3/1 6/3/1 7/3/1
f 11/2/1 10/2/1 9/2/1
f 12/2/1 10/2/1 11/2/1
f 17/1/1 14/1/1 13/1/1
f 18/1/1 14/1/1 17/1/1
f 19/1/1 16/1/1 15/1/1
f 20/1/1 16/1/1 19/1/1
f 23/3/1 22/3/1 21/3/1
f 24/3/1 22/3/1 23/3/1
f 27/3/1 26/3/1 25/3/1
f 28/3/1 26/3/1 27/3/1
f 31/3/1 30/3/1 29/3/1
f 32/3/1 30/3/1 31/3/1
f 33/1/2 34/1/2 37/1/2
f 37/1/2 34/1/2 38/1/2
f 35/1/2 36/1/2 39/1/2
f 39/1/2 36/1/2 40/1/2
f 41/3/2 42/3/2 43/3/2
f 43/3/2 42/3/2 44/3/2
f 45/4/2 46/4/2 47/4/2
f 47/4/2 46/4/2 48/4/2
f 47/3/2 48/3/2 49/3/2
f 49/3/2 48/3/2 50/3/2
f 51/5/2 52/5/2 53/5/2
f 53/5/2 52/5/2 54/5/2
f 58/5/3 56/5/3 55/5/3
f 59/1/3 58/1/3 57/1/3
f 60/5/3 56/5/3 58/5/3
f 60/1/3 58/1/3 59/1/3
f 61/5/3 56/5/3 60/5/3
f 62/5/3 56/5/3 61/5/3
f 67/3/3 64/3/3 63/3/3
f 68/3/3 64/3/3 67/3/3
f 69/2/3 66/2/3 65/2/3
f 70/2/3 66/2/3 69/2/3
f 71/2/3 66/2/3 70/2/3
f 73/3/3 72/3/3 71/3/3
f 73/3/3 71/3/3 70/3/3
f 73/4/3 70/4/3 69/4/3
f 74/3/3 72/3/3 73/3/3
f 75/3/3 72/3/3 74/3/3
f 79/4/3 74/4/3 73/4/3
f 79/3/3 75/3/3 74/3/3
f 79/3/3 76/3/3 75/3/3
f 80/3/3 76/3/3 79/3/3
f 81/3/3 76/3/3 80/3/3
f 83/3/3 78/3/3 77/3/3
f 84/3/3 78/3/3 83/3/3
f 85/4/3 73/4/3 69/4/3
f 85/4/3 79/4/3 73/4/3
f 85/4/3 80/4/3 79/4/3
f 86/3/3 82/3/3 81/3/3
f 86/4/3 80/4/3 85/4/3
f 86/3/3 81/3/3 80/3/3
f 87/3/3 82/3/3 86/3/3
f 88/3/4 89/3/4 92/3/4
f 92/3/4 89/3/4 93/3/4
f 90/2/4 91/2/4 94/2/4
f 94/2/4 91/2/4 95/2/4
f 95/2/4 91/2/4 96/2/4
f 96/3/4 97/3/4 98/3/4
f 95/3/4 96/3/4 98/3/4
f 94/4/4 95/4/4 98/4/4
f 98/3/4 97/3/4 99/3/4
f 99/3/4 97/3/4 100/3/4
f 98/4/4 99/4/4 104/4/4
f 99/3/4 100/3/4 104/3/4
f 100/3/4 101/3/4 104/3/4
f 104/3/4 101/3/4 105/3/4
f 105/3/4 101/3/4 106/3/4
f 102/3/4 103/3/4 108/3/4
f 108/3/4 103/3/4 109/3/4
f 94/4/4 98/4/4 110/4/4
f 98/4/4 104/4/4 110/4/4
f 104/4/4 105/4/4 110/4/4
f 106/3/4 107/3/4 111/3/4
f 110/4/4 105/4/4 111/4/4
f 105/3/4 106/3/4 111/3/4
f 111/3/4 107/3/4 112/3/4
f 113/5/4 114/5/4 116/5/4
f 115/1/4 116/1/4 117/1/4
f 116/5/4 114/5/4 118/5/4
f 117/1/4 116/1/4 118/1/4
f 118/5/4 114/5/4 119/5/4
f 119/5/4 114/5/4 120/5/4
f 124/1/5 122/1/5 121/1/5
f 125/1/5 122/1/5 124/1/5
f 127/3/5 124/3/5 123/3/5
f 127/3/5 126/3/5 125/3/5
f 127/3/5 125/3/5 124/3/5
f 128/3/5 126/3/5 127/3/5
f 129/3/5 126/3/5 128/3/5
f 130/3/5 126/3/5 129/3/5
f 131/1/5 129/1/5 128/1/5
f 132/1/5 129/1/5 131/1/5
f 137/5/5 134/5/5 133/5/5
f 138/5/5 134/5/5 137/5/5
f 139/5/5 136/5/5 135/5/5
f 140/5/5 136/5/5 139/5/5
f 141/5/5 137/5/5 133/5/5
f 144/5/5 136/5/5 140/5/5
f 145/5/5 142/5/5 141/5/5
f 145/5/5 141/5/5 133/5/5
f 146/5/5 142/5/5 145/5/5
f 147/5/5 144/5/5 143/5/5
f 148/5/5 136/5/5 144/5/5
f 148/5/5 144/5/5 147/5/5
f 149/5/6 150/5/6 151/5/6
f 151/5/6 150/5/6 152/5/6
f 152/5/6 150/5/6 153/5/6
f 149/5/6 151/5/6 154/5/6
f 153/5/6 150/5/6 156/5/6
f 154/5/6 155/5/6 157/5/6
f 155/5/6 156/5/6 157/5/6
f 149/5/6 154/5/6 157/5/6
f 156/5/6 150/5/6 158/5/6
f 157/5/6 156/5/6 158/5/6
f 159/2/6 160/2/6 161/2/6
f 161/2/6 160/2/6 162/2/6
f 163/3/6 164/3/6 165/3/6
f 165/3/6 164/3/6 166/3/6
f 167/3/6 168/3/6 169/3/6
f 169/3/6 168/3/6 170/3/6
f 171/3/6 172/3/6 173/3/6
f 173/3/6 172/3/6 174/3/6
